<svg width="22" height="22" viewBox="0 0 22 22" fill="none" xmlns="http://www.w3.org/2000/svg">
<path d="M7.57306 5.50976C7.63009 5.26001 7.78199 5.05039 7.99538 4.92694C8.20877 4.8035 8.46621 4.77632 8.71115 4.85138L16.1172 7.12602C16.3621 7.20139 16.5743 7.37282 16.7072 7.60264C16.8402 7.83246 16.883 8.10188 16.8263 8.35173L15.1061 15.9058C15.0422 16.1475 14.8886 16.3479 14.6776 16.4648C14.4667 16.5816 14.2149 16.6058 13.9753 16.5322C13.7357 16.4587 13.5271 16.2931 13.3935 16.0704C13.2599 15.8477 13.2116 15.5853 13.259 15.3385L14.461 10.0595L6.47292 14.6806C6.25935 14.8042 6.00167 14.8313 5.75657 14.756C5.51147 14.6807 5.29903 14.5092 5.16597 14.2792C5.03291 14.0492 4.99014 13.7795 5.04707 13.5295C5.10399 13.2795 5.25596 13.0697 5.46952 12.9461L13.4577 8.32504L8.28212 6.73547C8.03726 6.6601 7.82504 6.48867 7.69209 6.25885C7.55914 6.02903 7.51633 5.75961 7.57306 5.50976Z" fill="#1C76D3"/>
</svg>
