<svg width="34" height="36" viewBox="0 0 34 36" fill="none" xmlns="http://www.w3.org/2000/svg">
<path d="M0.226456 8.2275C0.327869 8.05805 0.461746 7.91028 0.620407 7.79269C0.779064 7.6751 0.959381 7.59 1.15101 7.54227C1.34264 7.49454 1.5418 7.48511 1.73708 7.51454C1.93236 7.54397 2.11991 7.61167 2.28896 7.71375L15.0127 15.3506V1.5C15.0127 1.10218 15.1707 0.720642 15.452 0.439339C15.7334 0.158035 16.1149 0 16.5127 0C16.9105 0 17.2921 0.158035 17.5734 0.439339C17.8547 0.720642 18.0127 1.10218 18.0127 1.5L18.0127 15.3506L30.7402 7.71375C30.9092 7.60994 31.0971 7.54067 31.293 7.50994C31.4889 7.47922 31.689 7.48765 31.8816 7.53475C32.0743 7.58185 32.2557 7.66669 32.4153 7.78435C32.575 7.90201 32.7097 8.05016 32.8117 8.22023C32.9137 8.39029 32.981 8.5789 33.0097 8.77514C33.0383 8.97138 33.0278 9.17135 32.9786 9.36349C32.9295 9.55562 32.8427 9.73611 32.7234 9.8945C32.604 10.0529 32.4545 10.186 32.2833 10.2863L19.4283 18L32.2833 25.7137C32.4545 25.814 32.604 25.9471 32.7234 26.1055C32.8427 26.2639 32.9295 26.4444 32.9786 26.6365C33.0278 26.8286 33.0383 27.0286 33.0097 27.2249C32.981 27.4211 32.9137 27.6097 32.8117 27.7798C32.7097 27.9498 32.575 28.098 32.4153 28.2157C32.2557 28.3333 32.0743 28.4182 31.8816 28.4653C31.689 28.5124 31.4889 28.5208 31.293 28.4901C31.0971 28.4593 30.9092 28.3901 30.7402 28.2863L18.0127 20.6494V34.5C18.0127 34.8978 17.8547 35.2794 17.5734 35.5607C17.2921 35.842 16.9105 36 16.5127 36C16.1149 36 15.7334 35.842 15.452 35.5607C15.1707 35.2794 15.0127 34.8978 15.0127 34.5L15.0127 20.6494L2.28521 28.2863C2.11623 28.3901 1.92834 28.4593 1.73242 28.4901C1.53649 28.5208 1.33642 28.5124 1.14378 28.4653C0.95113 28.4182 0.769737 28.3333 0.610092 28.2157C0.450447 28.098 0.31572 27.9498 0.213703 27.7798C0.111687 27.6097 0.0444107 27.4211 0.0157623 27.2249C-0.0128899 27.0286 -0.00234222 26.8286 0.0467987 26.6365C0.0959358 26.4444 0.182686 26.2639 0.302032 26.1055C0.421375 25.9471 0.570942 25.814 0.742081 25.7137L13.5971 18L0.742081 10.2863C0.572975 10.185 0.425484 10.0514 0.308033 9.89311C0.190586 9.73482 0.105488 9.55494 0.0576019 9.36374C0.00971222 9.17254 -2.28882e-05 8.97378 0.0289536 8.77881C0.0579262 8.58385 0.125038 8.39651 0.226456 8.2275Z" fill="#172443"/>
</svg>
