<svg width="48" height="48" viewBox="0 0 48 48" fill="none" xmlns="http://www.w3.org/2000/svg">
<path d="M7.93864 28.9388L22.9386 13.9388C23.078 13.7993 23.2434 13.6887 23.4255 13.6132C23.6076 13.5377 23.8028 13.4988 23.9999 13.4988C24.197 13.4988 24.3922 13.5377 24.5743 13.6132C24.7564 13.6887 24.9218 13.7993 25.0611 13.9388L40.0611 28.9388C40.3426 29.2202 40.5007 29.602 40.5007 30C40.5007 30.3981 40.3426 30.7798 40.0611 31.0613C39.7797 31.3427 39.3979 31.5009 38.9999 31.5009C38.6019 31.5009 38.2201 31.3427 37.9386 31.0613L23.9999 17.1206L10.0611 31.0613C9.92178 31.2006 9.75633 31.3112 9.57424 31.3866C9.39215 31.462 9.19699 31.5009 8.9999 31.5009C8.8028 31.5009 8.60764 31.462 8.42555 31.3866C8.24346 31.3112 8.07801 31.2006 7.93864 31.0613C7.79928 30.9219 7.68873 30.7565 7.61331 30.5744C7.53788 30.3923 7.49906 30.1971 7.49906 30C7.49906 29.8029 7.53788 29.6078 7.61331 29.4257C7.68873 29.2436 7.79928 29.0781 7.93864 28.9388Z" fill="#172443"/>
</svg>
