<svg width="48" height="48" viewBox="0 0 48 48" fill="none" xmlns="http://www.w3.org/2000/svg">
<path d="M13.9388 22.9388L28.9388 7.93877C29.0781 7.7994 29.2436 7.68885 29.4257 7.61343C29.6078 7.53801 29.8029 7.49918 30 7.49918C30.1971 7.49918 30.3923 7.53801 30.5744 7.61343C30.7565 7.68885 30.9219 7.7994 31.0613 7.93877C31.2006 8.07813 31.3112 8.24358 31.3866 8.42567C31.462 8.60776 31.5009 8.80293 31.5009 9.00002C31.5009 9.19711 31.462 9.39227 31.3866 9.57436C31.3112 9.75645 31.2006 9.9219 31.0613 10.0613L17.1206 24L31.0613 37.9388C31.3427 38.2202 31.5009 38.602 31.5009 39C31.5009 39.3981 31.3427 39.7798 31.0613 40.0613C30.7798 40.3427 30.3981 40.5009 30 40.5009C29.602 40.5009 29.2202 40.3427 28.9388 40.0613L13.9388 25.0613C13.7993 24.922 13.6887 24.7565 13.6132 24.5744C13.5377 24.3923 13.4988 24.1971 13.4988 24C13.4988 23.8029 13.5377 23.6077 13.6132 23.4256C13.6887 23.2435 13.7993 23.0781 13.9388 22.9388Z" fill="#172443"/>
</svg>
