<svg width="48" height="48" viewBox="0 0 48 48" fill="none" xmlns="http://www.w3.org/2000/svg">
<path d="M7.93877 16.9388C8.07808 16.7993 8.24352 16.6887 8.42561 16.6132C8.60771 16.5377 8.8029 16.4989 9.00002 16.4989C9.19714 16.4989 9.39234 16.5377 9.57443 16.6132C9.75653 16.6887 9.92196 16.7993 10.0613 16.9388L24 30.8794L37.9388 16.9388C38.2202 16.6573 38.602 16.4992 39 16.4992C39.3981 16.4992 39.7798 16.6573 40.0613 16.9388C40.3427 17.2203 40.5009 17.602 40.5009 18C40.5009 18.3981 40.3427 18.7798 40.0613 19.0613L25.0613 34.0613C24.922 34.2008 24.7565 34.3114 24.5744 34.3869C24.3923 34.4624 24.1971 34.5012 24 34.5012C23.8029 34.5012 23.6077 34.4624 23.4256 34.3869C23.2435 34.3114 23.0781 34.2008 22.9388 34.0613L7.93877 19.0613C7.7993 18.922 7.68866 18.7565 7.61318 18.5745C7.53769 18.3924 7.49884 18.1972 7.49884 18C7.49884 17.8029 7.53769 17.6077 7.61318 17.4256C7.68866 17.2435 7.7993 17.0781 7.93877 16.9388Z" fill="#172443"/>
</svg>
