<svg width="42" height="42" viewBox="0 0 42 42" fill="none" xmlns="http://www.w3.org/2000/svg">
<path d="M30.2198 15.011C30.37 15.161 30.4892 15.3391 30.5704 15.5352C30.6517 15.7313 30.6936 15.9416 30.6936 16.1538C30.6936 16.3661 30.6517 16.5763 30.5704 16.7724C30.4892 16.9685 30.37 17.1467 30.2198 17.2967L18.9121 28.6044C18.7621 28.7546 18.5839 28.8738 18.3878 28.955C18.1917 29.0363 17.9815 29.0782 17.7692 29.0782C17.557 29.0782 17.3467 29.0363 17.1506 28.955C16.9545 28.8738 16.7764 28.7546 16.6264 28.6044L11.7802 23.7583C11.4771 23.4552 11.3068 23.044 11.3068 22.6154C11.3068 22.1867 11.4771 21.7756 11.7802 21.4725C12.0833 21.1694 12.4944 20.9991 12.9231 20.9991C13.3517 20.9991 13.7629 21.1694 14.066 21.4725L17.7692 25.1778L27.934 15.011C28.0841 14.8608 28.2622 14.7416 28.4583 14.6603C28.6544 14.579 28.8646 14.5372 29.0769 14.5372C29.2892 14.5372 29.4994 14.579 29.6955 14.6603C29.8916 14.7416 30.0698 14.8608 30.2198 15.011ZM42 21C42 25.1534 40.7684 29.2135 38.4609 32.667C36.1534 36.1204 32.8736 38.812 29.0364 40.4015C25.1991 41.9909 20.9767 42.4068 16.9031 41.5965C12.8295 40.7862 9.08767 38.7861 6.15077 35.8492C3.21387 32.9123 1.21381 29.1705 0.403521 25.0969C-0.406769 21.0233 0.00910044 16.8009 1.59854 12.9636C3.18798 9.1264 5.8796 5.84665 9.33303 3.53914C12.7865 1.23163 16.8466 -1.47278e-06 21 -1.83588e-06C26.5677 0.00587731 31.9058 2.22026 35.8427 6.15725C39.7797 10.0942 41.9941 15.4323 42 21ZM38.7692 21C38.7692 17.4856 37.7271 14.0501 35.7746 11.1279C33.8221 8.2058 31.0469 5.92828 27.8 4.58337C24.5531 3.23846 20.9803 2.88657 17.5334 3.5722C14.0865 4.25783 10.9203 5.95018 8.43526 8.43525C5.95019 10.9203 4.25784 14.0865 3.57221 17.5334C2.88658 20.9803 3.23847 24.5531 4.58338 27.8C5.92829 31.0469 8.20582 33.8221 11.128 35.7746C14.0501 37.7271 17.4856 38.7692 21 38.7692C25.7111 38.7639 30.2276 36.8901 33.5588 33.5588C36.8901 30.2276 38.7639 25.711 38.7692 21Z" fill="#172443"/>
</svg>
