<svg width="12" height="12" viewBox="0 0 12 12" fill="none" xmlns="http://www.w3.org/2000/svg">
<path d="M11.7363 5.82733C11.9052 5.98432 12 6.19712 12 6.419C12 6.64087 11.9052 6.85368 11.7363 7.01066L6.62658 11.7551C6.45751 11.9119 6.22832 12 5.98937 12C5.75041 12 5.52123 11.9119 5.35216 11.7551L0.242448 7.01066C0.0829737 6.85198 -0.00390315 6.64199 0.000133758 6.42499C0.00417162 6.20798 0.0988076 6.0009 0.264089 5.84743C0.429379 5.69396 0.652392 5.60609 0.886106 5.60234C1.11982 5.59859 1.34597 5.67926 1.51687 5.82733L5.08766 9.14289L5.08766 0.837261C5.08766 0.615205 5.18266 0.402245 5.35176 0.245228C5.52087 0.0882117 5.75022 6.80488e-07 5.98937 6.90941e-07C6.22852 7.01395e-07 6.45787 0.0882118 6.62698 0.245229C6.79608 0.402245 6.89108 0.615206 6.89108 0.837261L6.89108 9.14289L10.4619 5.82733C10.6309 5.67054 10.8601 5.58247 11.0991 5.58247C11.338 5.58247 11.5672 5.67054 11.7363 5.82733Z" fill="black"/>
</svg>
