<svg width="16" height="16" viewBox="0 0 16 16" fill="none" xmlns="http://www.w3.org/2000/svg">
<path d="M15.25 3.75588H13.1562C12.991 4.40119 12.6157 4.97316 12.0895 5.38161C11.5633 5.79006 10.9161 6.01176 10.25 6.01176C9.58387 6.01176 8.93669 5.79006 8.41048 5.38161C7.88428 4.97316 7.50898 4.40119 7.34375 3.75588H0.75C0.551087 3.75588 0.360322 3.67686 0.219669 3.53621C0.0790167 3.39556 0 3.2048 0 3.00588C0 2.80697 0.0790167 2.6162 0.219669 2.47555C0.360322 2.3349 0.551087 2.25588 0.75 2.25588H7.34375C7.50898 1.61057 7.88428 1.0386 8.41048 0.630153C8.93669 0.221702 9.58387 0 10.25 0C10.9161 0 11.5633 0.221702 12.0895 0.630153C12.6157 1.0386 12.991 1.61057 13.1562 2.25588H15.25C15.4489 2.25588 15.6397 2.3349 15.7803 2.47555C15.921 2.6162 16 2.80697 16 3.00588C16 3.2048 15.921 3.39556 15.7803 3.53621C15.6397 3.67686 15.4489 3.75588 15.25 3.75588ZM10.25 1.50588C9.95333 1.50588 9.66332 1.59386 9.41665 1.75868C9.16997 1.9235 8.97771 2.15777 8.86418 2.43186C8.75065 2.70595 8.72094 3.00755 8.77882 3.29852C8.8367 3.58949 8.97956 3.85676 9.18934 4.06654C9.39912 4.27632 9.66639 4.41918 9.95736 4.47706C10.2483 4.53494 10.5499 4.50523 10.824 4.3917C11.0981 4.27817 11.3324 4.08591 11.4972 3.83924C11.662 3.59256 11.75 3.30255 11.75 3.00588C11.75 2.60806 11.592 2.22653 11.3107 1.94522C11.0294 1.66392 10.6478 1.50588 10.25 1.50588ZM0.75 11.2559H2.34375C2.50898 10.6106 2.88428 10.0386 3.41048 9.63015C3.93669 9.2217 4.58387 9 5.25 9C5.91613 9 6.56331 9.2217 7.08952 9.63015C7.61572 10.0386 7.99102 10.6106 8.15625 11.2559H15.25C15.4489 11.2559 15.6397 11.3349 15.7803 11.4756C15.921 11.6162 16 11.807 16 12.0059C16 12.2048 15.921 12.3956 15.7803 12.5362C15.6397 12.6769 15.4489 12.7559 15.25 12.7559H8.15625C7.99102 13.4012 7.61572 13.9732 7.08952 14.3816C6.56331 14.7901 5.91613 15.0118 5.25 15.0118C4.58387 15.0118 3.93669 14.7901 3.41048 14.3816C2.88428 13.9732 2.50898 13.4012 2.34375 12.7559H0.75C0.551087 12.7559 0.360322 12.6769 0.219669 12.5362C0.0790167 12.3956 0 12.2048 0 12.0059C0 11.807 0.0790167 11.6162 0.219669 11.4756C0.360322 11.3349 0.551087 11.2559 0.75 11.2559ZM5.25 13.5059C5.54667 13.5059 5.83668 13.4179 6.08336 13.2531C6.33003 13.0883 6.52229 12.854 6.63582 12.5799C6.74935 12.3058 6.77906 12.0042 6.72118 11.7132C6.6633 11.4223 6.52044 11.155 6.31066 10.9452C6.10088 10.7354 5.83361 10.5926 5.54263 10.5347C5.25166 10.4768 4.95006 10.5065 4.67597 10.6201C4.40189 10.7336 4.16762 10.9259 4.0028 11.1725C3.83797 11.4192 3.75 11.7092 3.75 12.0059C3.75 12.4037 3.90804 12.7852 4.18934 13.0665C4.47064 13.3478 4.85217 13.5059 5.25 13.5059Z" fill="black"/>
</svg>
