<svg width="144" height="43" viewBox="0 0 144 43" fill="none" xmlns="http://www.w3.org/2000/svg">
<path d="M16.1131 14.5126L5.85145 4.255C5.4954 3.89909 5.4954 3.32122 5.85145 2.96531L8.54989 0.267937C8.90795 -0.0879794 9.48205 -0.0879794 9.8401 0.267937L14.3188 4.74489C18.1935 8.61798 24.4745 8.61798 28.3531 4.74489L32.8319 0.267937C33.1859 -0.0879794 33.764 -0.0879794 34.1181 0.267937L36.8185 2.96531C37.1766 3.32122 37.1766 3.89709 36.8185 4.255L26.5568 14.5126C23.6704 17.3959 18.9956 17.3959 16.1111 14.5126H16.1131ZM9.8401 42.3841L14.3188 37.9071C18.1955 34.034 24.4785 34.034 28.3531 37.9071L32.8339 42.3841C33.1879 42.74 33.766 42.74 34.1201 42.3841L36.8205 39.6867C37.1786 39.3308 37.1786 38.7529 36.8205 38.397L26.5588 28.1394C23.6724 25.2561 18.9976 25.2561 16.1131 28.1394L5.85145 38.397C5.4954 38.7529 5.4954 39.3308 5.85145 39.6867L8.54789 42.3841C8.90595 42.74 9.48005 42.74 9.83811 42.3841H9.8401ZM39.703 36.8034L42.4014 34.106C42.7575 33.7501 42.7575 33.1742 42.4014 32.8163L37.9247 28.3394C34.0481 24.4643 34.0481 18.1857 37.9247 14.3127L42.4014 9.8357C42.7575 9.47978 42.7575 8.90392 42.4014 8.546L39.703 5.84863C39.3469 5.49271 38.7708 5.49271 38.4128 5.84863L28.1511 16.1062C25.2686 18.9896 25.2686 23.6625 28.1511 26.5438L38.4128 36.8014C38.7688 37.1573 39.3449 37.1573 39.703 36.8014V36.8034ZM4.25519 36.8034L14.5189 26.5458C17.4013 23.6625 17.4013 18.9896 14.5189 16.1082L4.25519 5.84863C3.90114 5.49271 3.32104 5.49271 2.96698 5.84863L0.268544 8.546C-0.0895146 8.90192 -0.0895146 9.47978 0.268544 9.8357L4.74727 14.3127C8.62191 18.1877 8.62191 24.4663 4.74727 28.3394L0.268544 32.8163C-0.0895146 33.1722 -0.0895146 33.7501 0.268544 34.106L2.96898 36.8034C3.32304 37.1593 3.90114 37.1593 4.25719 36.8034H4.25519ZM80.6997 29.731C79.6795 30.3209 78.8894 31.1267 78.3193 32.1605C77.7492 33.1942 77.4651 34.382 77.4651 35.7296C77.4651 37.0773 77.7552 38.265 78.3333 39.2988C78.9134 40.3286 79.7095 41.1384 80.7377 41.7242C81.7638 42.3101 82.932 42.604 84.2422 42.604H84.2542C85.5505 42.604 86.7066 42.3101 87.7208 41.7242C88.735 41.1424 89.5211 40.3326 90.0812 39.2988C90.6393 38.265 90.9193 37.0773 90.9193 35.7296C90.9193 34.382 90.6333 33.1942 90.0632 32.1605C89.4931 31.1267 88.701 30.3169 87.6868 29.731C86.6686 29.1452 85.5084 28.8512 84.1942 28.8512C82.88 28.8512 81.7158 29.1452 80.7017 29.731H80.6997ZM55.3095 24.8142C53.8673 25.628 52.7351 26.7477 51.911 28.1714C51.0888 29.5951 50.6788 31.2487 50.6788 33.1203C50.6788 34.9918 51.0888 36.5874 51.911 38.0151C52.7351 39.4388 53.8673 40.5625 55.3095 41.3723C56.7558 42.1861 58.406 42.594 60.2603 42.594C61.8906 42.594 63.3268 42.2641 64.581 41.6083C65.1511 41.3123 65.6572 40.9484 66.1133 40.5385V42.2801H68.5817V32.6224H66.1133V32.6264H61.2585V35.0918H65.6552C65.6192 35.9756 65.3972 36.7634 64.9731 37.4512C64.511 38.2031 63.8749 38.7909 63.0668 39.2088C62.2627 39.6287 61.3545 39.8387 60.3363 39.8387C59.0441 39.8387 57.8959 39.5507 56.9098 38.9709C55.9196 38.393 55.1495 37.5992 54.5994 36.5814C54.0513 35.5677 53.7753 34.4119 53.7753 33.1183C53.7753 31.8246 54.0553 30.6208 54.6134 29.6151C55.1775 28.6093 55.9416 27.8155 56.9118 27.2376C57.8799 26.6598 59.0001 26.3718 60.2563 26.3718C60.9044 26.3718 61.5385 26.4818 62.1626 26.7017C62.7827 26.9217 63.3528 27.2316 63.8789 27.6335C64.403 28.0374 64.8331 28.4913 65.1671 28.9972L67.6335 27.4216C67.1615 26.6678 66.5474 26.0099 65.7972 25.44C65.0431 24.8702 64.203 24.4223 63.2668 24.0884C62.3307 23.7544 61.3285 23.5885 60.2603 23.5885C58.406 23.5885 56.7558 23.9964 55.3095 24.8102V24.8142ZM86.1305 32.0945C86.6906 32.4524 87.1307 32.9403 87.4568 33.5641C87.7768 34.186 87.9388 34.9078 87.9388 35.7296C87.9388 36.5514 87.7828 37.2713 87.4668 37.8951C87.1547 38.517 86.7166 39.0049 86.1566 39.3648C85.5965 39.7247 84.9564 39.9027 84.2402 39.9027C83.5241 39.9027 82.856 39.7227 82.2859 39.3648C81.7158 39.0069 81.2718 38.519 80.9477 37.8951C80.6236 37.2733 80.4616 36.5514 80.4616 35.7296C80.4616 34.9078 80.6217 34.184 80.9337 33.5522C81.2478 32.9223 81.6838 32.4324 82.2439 32.0825C82.802 31.7326 83.4541 31.5586 84.1842 31.5586C84.9144 31.5586 85.5645 31.7386 86.1286 32.0965L86.1305 32.0945ZM90.9413 0.675842H88.0029V19.0455L87.9969 19.0495H90.7813L90.9093 17.078C91.2694 17.6539 91.7135 18.1298 92.2395 18.5057C93.0377 19.0755 93.9858 19.3595 95.09 19.3595C96.2782 19.3595 97.3164 19.0755 98.1985 18.5057C99.0847 17.9358 99.7708 17.138 100.273 16.1042C100.773 15.0705 101.023 13.8828 101.023 12.4831C101.023 11.0834 100.773 9.87369 100.273 8.84993C99.7768 7.82417 99.0847 7.03036 98.1985 6.46049C97.3164 5.89062 96.2782 5.60669 95.09 5.60669C93.9858 5.60669 93.0377 5.89062 92.2395 6.46049C91.7295 6.8264 91.2974 7.2843 90.9413 7.83417V0.675842ZM55.0895 0.675842H51.835V19.0455H54.8835V5.53071L60.8424 14.3207L66.8274 5.47872V19.0455H69.8739V0.675842H66.5914L60.8664 9.17785L55.0895 0.675842ZM96.2702 8.83793C96.8123 9.18785 97.2384 9.67574 97.5464 10.3076C97.8525 10.9374 98.0045 11.6633 98.0045 12.4851C98.0045 13.3069 97.8425 14.0307 97.5224 14.6626C97.2024 15.2884 96.7623 15.7863 96.2242 16.1442C95.6841 16.5021 95.06 16.6821 94.3619 16.6821H94.3559C93.6918 16.6821 93.1017 16.5021 92.5856 16.1442C92.0695 15.7863 91.6635 15.2944 91.3754 14.6626C91.0874 14.0367 90.9433 13.3069 90.9433 12.4851C90.9433 11.6633 91.0874 10.9394 91.3754 10.3076C91.6635 9.67774 92.0715 9.18785 92.5976 8.83793C93.1217 8.48801 93.7218 8.31405 94.3859 8.31405C95.104 8.31405 95.7321 8.48801 96.2742 8.83793H96.2702ZM76.0809 42.4521V40.0026C76.0029 40.0026 75.9329 40.0086 75.8709 40.0146C75.8089 40.0226 75.7149 40.0266 75.5908 40.0266C75.0928 40.0266 74.7747 39.9207 74.6347 39.7107C74.4947 39.5008 74.4246 39.2168 74.4246 38.8589V23.9264H71.4862V39.3488C71.4862 40.4985 71.7902 41.3303 72.3963 41.8442C73.0024 42.3581 73.8025 42.614 74.7987 42.614C75.0928 42.614 75.3068 42.602 75.4408 42.58C75.5728 42.558 75.7869 42.5141 76.0829 42.4521H76.0809ZM85.6825 12.4971C85.6825 13.8448 85.4004 15.0325 84.8423 16.0662C84.2823 17.1 83.4961 17.9098 82.4819 18.4917C81.4718 19.0775 80.3136 19.3715 79.0194 19.3715H79.0074C77.6972 19.3715 76.525 19.0775 75.5028 18.4917C74.4767 17.9058 73.6785 17.096 73.0984 16.0662C72.5203 15.0325 72.2303 13.8448 72.2303 12.4971C72.2303 11.1494 72.5163 9.96167 73.0864 8.92791C73.6565 7.89415 74.4446 7.08834 75.4628 6.49848C76.477 5.91262 77.6412 5.61869 78.9554 5.61869C80.2696 5.61869 81.4298 5.91262 82.452 6.49848C83.4621 7.08434 84.2582 7.89415 84.8283 8.92791C85.3984 9.96167 85.6845 11.1494 85.6845 12.4971H85.6825ZM82.706 12.4971C82.706 11.6753 82.544 10.9554 82.2239 10.3316C81.8979 9.70973 81.4578 9.22184 80.8937 8.86193C80.3336 8.50401 79.6855 8.32405 78.9534 8.32405C78.2213 8.32405 77.5712 8.49801 77.0131 8.84793C76.453 9.19785 76.0169 9.68573 75.7029 10.3176C75.3908 10.9474 75.2308 11.6733 75.2308 12.4951C75.2308 13.3169 75.3928 14.0367 75.7149 14.6606C76.0409 15.2824 76.483 15.7723 77.0531 16.1302C77.6232 16.4881 78.2733 16.6681 79.0094 16.6681C79.7455 16.6681 80.3656 16.4881 80.9277 16.1302C81.4898 15.7723 81.9239 15.2844 82.2379 14.6606C82.55 14.0387 82.708 13.3169 82.708 12.4951L82.706 12.4971ZM106.254 5.93661H103.341V19.0555H106.254V5.93661ZM119.528 5.93661H116.612V19.0555H119.528V5.93661ZM103.591 0.499883C103.249 0.833805 103.079 1.23571 103.079 1.7076C103.079 2.17949 103.249 2.58739 103.591 2.92931C103.933 3.27123 104.342 3.44119 104.812 3.44319C105.284 3.44319 105.692 3.27123 106.034 2.92931C106.376 2.58739 106.546 2.17949 106.546 1.7076C106.546 1.23571 106.376 0.831805 106.034 0.499883C105.692 0.165961 105.284 0 104.812 0C104.34 0 103.933 0.165961 103.591 0.499883ZM116.862 0.499883C116.52 0.833805 116.349 1.23571 116.349 1.7076C116.349 2.17949 116.52 2.58739 116.862 2.92931C117.204 3.27123 117.612 3.44319 118.082 3.44319C118.554 3.44319 118.962 3.27123 119.304 2.92931C119.646 2.58739 119.816 2.17949 119.816 1.7076C119.816 1.23571 119.646 0.831805 119.304 0.499883C118.962 0.165961 118.554 0 118.082 0C117.61 0 117.204 0.167961 116.862 0.499883ZM105.502 32.1045C106.002 33.1263 106.252 34.338 106.252 35.7376C106.252 37.1373 106.002 38.325 105.502 39.3588C105 40.3926 104.314 41.1904 103.429 41.7602C102.547 42.3301 101.509 42.614 100.321 42.614C99.2167 42.614 98.2685 42.3301 97.4704 41.7602C96.9463 41.3843 96.5022 40.9104 96.1402 40.3326L96.0102 42.3041H93.2257L93.2317 42.3001V23.9304H96.1702V31.0887C96.5262 30.5369 96.9583 30.079 97.4684 29.713C98.2665 29.1432 99.2147 28.8592 100.319 28.8592C101.507 28.8592 102.545 29.1432 103.427 29.713C104.312 30.2829 105.004 31.0767 105.5 32.1025L105.502 32.1045ZM103.229 35.7416C103.229 34.9198 103.073 34.196 102.771 33.5641C102.465 32.9343 102.035 32.4444 101.495 32.0945C100.951 31.7446 100.321 31.5706 99.6048 31.5706C98.9426 31.5706 98.3445 31.7446 97.8205 32.0945C97.2964 32.4444 96.8863 32.9323 96.5983 33.5641C96.3342 34.136 96.1942 34.7879 96.1702 35.5177V35.9656C96.1942 36.6954 96.3342 37.3453 96.5983 37.9191C96.8863 38.549 97.2884 39.0429 97.8085 39.4008C98.3245 39.7587 98.9146 39.9387 99.5787 39.9387H99.5827C100.285 39.9387 100.905 39.7587 101.449 39.4008C101.989 39.0429 102.425 38.547 102.745 37.9191C103.069 37.2893 103.231 36.5634 103.231 35.7416H103.229ZM118.236 29.1772H121.152V42.2961H118.368V42.3001L118.264 40.3386C117.9 40.9124 117.46 41.3843 116.938 41.7582C116.139 42.3281 115.191 42.614 114.091 42.614C112.899 42.614 111.861 42.3281 110.979 41.7582C110.096 41.1884 109.402 40.3905 108.904 39.3568C108.402 38.323 108.158 37.1193 108.158 35.7356C108.158 34.352 108.404 33.1222 108.904 32.1025C109.406 31.0767 110.096 30.2829 110.979 29.713C111.861 29.1432 112.899 28.8592 114.091 28.8592C115.191 28.8592 116.139 29.1432 116.938 29.713C117.45 30.079 117.884 30.5349 118.236 31.0867V29.1772ZM118.234 35.7416C118.234 34.9198 118.09 34.196 117.802 33.5641C117.514 32.9323 117.108 32.4444 116.592 32.0945C116.075 31.7446 115.475 31.5706 114.791 31.5706C114.107 31.5706 113.467 31.7446 112.929 32.0945C112.385 32.4444 111.961 32.9323 111.653 33.5641C111.347 34.194 111.185 34.9198 111.171 35.7416C111.185 36.5634 111.347 37.2873 111.653 37.9191C111.959 38.549 112.391 39.0429 112.939 39.4008C113.489 39.7587 114.115 39.9387 114.815 39.9387H114.821C115.485 39.9387 116.075 39.7587 116.592 39.4008C117.108 39.0429 117.514 38.547 117.802 37.9191C118.09 37.2913 118.234 36.5634 118.234 35.7416ZM128.74 42.4521V40.0026C128.661 40.0026 128.591 40.0086 128.529 40.0146C128.467 40.0226 128.373 40.0266 128.249 40.0266C127.751 40.0266 127.433 39.9207 127.293 39.7107C127.153 39.5008 127.083 39.2168 127.083 38.8589V23.9264H124.145V39.3488C124.145 40.4985 124.449 41.3303 125.055 41.8442C125.661 42.3581 126.461 42.614 127.457 42.614C127.751 42.614 127.965 42.602 128.099 42.58C128.231 42.558 128.445 42.5141 128.741 42.4521H128.74ZM114.053 19.2075V16.7581C113.975 16.7581 113.905 16.7641 113.843 16.7701C113.781 16.7781 113.687 16.7821 113.563 16.7821C113.065 16.7821 112.747 16.6761 112.607 16.4661C112.467 16.2562 112.397 15.9723 112.397 15.6143V0.68384H109.458V16.1062C109.458 17.256 109.762 18.0878 110.368 18.6016C110.975 19.1155 111.775 19.3715 112.771 19.3715C113.065 19.3715 113.279 19.3595 113.413 19.3375C113.545 19.3155 113.759 19.2715 114.055 19.2095L114.053 19.2075ZM140.801 5.93261L136.913 15.6383L132.898 5.93261H129.696L135.533 18.9596L134.814 20.6372C134.64 21.0571 134.406 21.377 134.118 21.5929C133.83 21.8129 133.476 21.9229 133.056 21.9229C132.882 21.9229 132.654 21.8729 132.372 21.7769C132.09 21.6789 131.788 21.553 131.452 21.395L130.35 23.7844C130.82 24.0284 131.312 24.2323 131.832 24.3863C132.348 24.5443 132.816 24.6222 133.236 24.6222C134.108 24.6222 134.826 24.4523 135.389 24.1104C135.953 23.7684 136.415 23.2846 136.793 22.6547C137.169 22.0248 137.543 21.291 137.909 20.4492L144 5.93861H140.801V5.93261ZM128.85 18.9956V16.5861C128.643 16.7781 127.303 17.06 126.829 16.3822C126.645 16.1202 126.639 15.6683 126.639 15.3104V1.84557H123.701V16.0742C123.701 17.224 124.005 18.0558 124.611 18.5697C125.217 19.0835 126.017 19.3495 127.013 19.3395C128.127 19.3275 128.85 18.9956 128.85 18.9956ZM128.874 5.93461H121.514V8.39204H128.874V5.93461Z" fill="white"/>
</svg>
