<svg width="12" height="12" viewBox="0 0 12 12" fill="none" xmlns="http://www.w3.org/2000/svg">
<path d="M6 6.3125C8.40625 6.3125 10.375 7.875 10.375 9.125C10.375 9.45652 10.2433 9.77446 10.0089 10.0089C9.77446 10.2433 9.45652 10.375 9.125 10.375H2.875C2.54348 10.375 2.22554 10.2433 1.99112 10.0089C1.7567 9.77446 1.625 9.45652 1.625 9.125C1.625 7.875 3.59375 6.3125 6 6.3125ZM6 7.25C4.99375 7.25 4.085 7.57875 3.4425 8.02125C2.74875 8.50063 2.5625 8.95813 2.5625 9.125C2.5625 9.20788 2.59542 9.28737 2.65403 9.34597C2.71263 9.40458 2.79212 9.4375 2.875 9.4375H9.125C9.20788 9.4375 9.28737 9.40458 9.34597 9.34597C9.40458 9.28737 9.4375 9.20788 9.4375 9.125C9.4375 8.95813 9.25187 8.5 8.5575 8.02125C7.915 7.57875 7.00562 7.25 6 7.25ZM6 1.625C6.58016 1.625 7.13656 1.85547 7.5468 2.2657C7.95703 2.67594 8.1875 3.23234 8.1875 3.8125C8.1875 4.39266 7.95703 4.94906 7.5468 5.3593C7.13656 5.76953 6.58016 6 6 6C5.41984 6 4.86344 5.76953 4.4532 5.3593C4.04297 4.94906 3.8125 4.39266 3.8125 3.8125C3.8125 3.23234 4.04297 2.67594 4.4532 2.2657C4.86344 1.85547 5.41984 1.625 6 1.625ZM6 2.5625C5.66848 2.5625 5.35054 2.6942 5.11612 2.92862C4.8817 3.16304 4.75 3.48098 4.75 3.8125C4.75 4.14402 4.8817 4.46196 5.11612 4.69638C5.35054 4.9308 5.66848 5.0625 6 5.0625C6.33152 5.0625 6.64946 4.9308 6.88388 4.69638C7.1183 4.46196 7.25 4.14402 7.25 3.8125C7.25 3.48098 7.1183 3.16304 6.88388 2.92862C6.64946 2.6942 6.33152 2.5625 6 2.5625Z" fill="#172443"/>
</svg>
