<svg width="26" height="26" viewBox="0 0 26 26" fill="none" xmlns="http://www.w3.org/2000/svg">
<path d="M11.3749 21.6667C11.3749 22.0977 11.5461 22.511 11.8509 22.8157C12.1556 23.1205 12.5689 23.2917 12.9999 23.2917C13.4309 23.2917 13.8442 23.1205 14.149 22.8157C14.4537 22.511 14.6249 22.0977 14.6249 21.6667V14.625H21.6666C22.0976 14.625 22.5109 14.4538 22.8156 14.1491C23.1204 13.8443 23.2916 13.431 23.2916 13C23.2916 12.569 23.1204 12.1557 22.8156 11.851C22.5109 11.5462 22.0976 11.375 21.6666 11.375H14.6249V4.33333C14.6249 3.90236 14.4537 3.48903 14.149 3.18428C13.8442 2.87954 13.4309 2.70833 12.9999 2.70833C12.5689 2.70833 12.1556 2.87954 11.8509 3.18428C11.5461 3.48903 11.3749 3.90236 11.3749 4.33333V11.375H4.33325C3.90228 11.375 3.48895 11.5462 3.1842 11.851C2.87946 12.1557 2.70825 12.569 2.70825 13C2.70825 13.431 2.87946 13.8443 3.1842 14.1491C3.48895 14.4538 3.90228 14.625 4.33325 14.625H11.3749V21.6667Z" fill="#1C76D3"/>
</svg>
