<svg width="26" height="26" viewBox="0 0 26 26" fill="none" xmlns="http://www.w3.org/2000/svg">
<path d="M11.375 21.6666C11.375 22.0976 11.5462 22.5109 11.8509 22.8156C12.1557 23.1204 12.569 23.2916 13 23.2916C13.431 23.2916 13.8443 23.1204 14.149 22.8156C14.4538 22.5109 14.625 22.0976 14.625 21.6666V14.6249H21.6667C22.0976 14.6249 22.511 14.4537 22.8157 14.149C23.1205 13.8442 23.2917 13.4309 23.2917 12.9999C23.2917 12.5689 23.1205 12.1556 22.8157 11.8509C22.511 11.5461 22.0976 11.3749 21.6667 11.3749H14.625V4.33325C14.625 3.90228 14.4538 3.48895 14.149 3.1842C13.8443 2.87946 13.431 2.70825 13 2.70825C12.569 2.70825 12.1557 2.87946 11.8509 3.1842C11.5462 3.48895 11.375 3.90228 11.375 4.33325V11.3749H4.33331C3.90234 11.3749 3.48901 11.5461 3.18426 11.8509C2.87952 12.1556 2.70831 12.5689 2.70831 12.9999C2.70831 13.4309 2.87952 13.8442 3.18426 14.149C3.48901 14.4537 3.90234 14.6249 4.33331 14.6249H11.375V21.6666Z" fill="#1C76D3"/>
</svg>
