<svg width="29" height="29" viewBox="0 0 29 29" fill="none" xmlns="http://www.w3.org/2000/svg">
<path d="M14.3999 25.2001C14.1612 25.2001 13.9323 25.1053 13.7635 24.9365C13.5947 24.7677 13.4999 24.5388 13.4999 24.3001L13.4999 15.3001L4.4999 15.3001C4.26121 15.3001 4.03229 15.2053 3.86351 15.0365C3.69472 14.8677 3.5999 14.6388 3.5999 14.4001C3.5999 14.1614 3.69472 13.9325 3.86351 13.7637C4.03229 13.5949 4.26121 13.5001 4.4999 13.5001L13.4999 13.5001L13.4999 4.5001C13.4999 4.2614 13.5947 4.03249 13.7635 3.8637C13.9323 3.69492 14.1612 3.6001 14.3999 3.6001C14.6386 3.6001 14.8675 3.69492 15.0363 3.8637C15.2051 4.03249 15.2999 4.2614 15.2999 4.5001L15.2999 13.5001L24.2999 13.5001C24.5386 13.5001 24.7675 13.5949 24.9363 13.7637C25.1051 13.9325 25.1999 14.1614 25.1999 14.4001C25.1999 14.6388 25.1051 14.8677 24.9363 15.0365C24.7675 15.2053 24.5386 15.3001 24.2999 15.3001L15.2999 15.3001L15.2999 24.3001C15.2999 24.5388 15.2051 24.7677 15.0363 24.9365C14.8675 25.1053 14.6386 25.2001 14.3999 25.2001Z" fill="#B8D6DF"/>
</svg>
