<svg width="12" height="12" viewBox="0 0 12 12" fill="none" xmlns="http://www.w3.org/2000/svg">
<path d="M10.4835 3.17855L8.26783 4.1607V2.7857C8.26783 2.57731 8.18505 2.37746 8.0377 2.23011C7.89035 2.08276 7.6905 1.99998 7.48211 1.99998H1.78568C1.5773 1.99998 1.37745 2.08276 1.2301 2.23011C1.08275 2.37746 0.999969 2.57731 0.999969 2.7857V8.48212C0.999969 8.69051 1.08275 8.89036 1.2301 9.03771C1.37745 9.18506 1.5773 9.26784 1.78568 9.26784H7.48211C7.6905 9.26784 7.89035 9.18506 8.0377 9.03771C8.18505 8.89036 8.26783 8.69051 8.26783 8.48212V7.10712L10.4835 8.08927C10.5433 8.11232 10.6077 8.12042 10.6713 8.11287C10.7349 8.10531 10.7957 8.08233 10.8484 8.04593C10.901 8.00952 10.944 7.96079 10.9735 7.90399C11.0031 7.84718 11.0183 7.78401 11.0178 7.71998V3.54784C11.0183 3.48381 11.0031 3.42064 10.9735 3.36383C10.944 3.30702 10.901 3.2583 10.8484 3.22189C10.7957 3.18548 10.7349 3.1625 10.6713 3.15495C10.6077 3.1474 10.5433 3.1555 10.4835 3.17855Z" stroke="#172443" stroke-linecap="round" stroke-linejoin="round"/>
</svg>
