<svg width="36" height="36" viewBox="0 0 36 36" fill="none" xmlns="http://www.w3.org/2000/svg">
<path d="M30.1966 29.7717L21.3934 15.937L30.0799 6.38156C30.2763 6.16011 30.3776 5.87015 30.3617 5.57455C30.3458 5.27894 30.214 5.00152 29.9949 4.80242C29.7758 4.60333 29.4871 4.49861 29.1913 4.51096C28.8955 4.52332 28.6166 4.65176 28.4149 4.86844L20.1405 13.9697L14.4466 5.02172C14.345 4.8619 14.2048 4.7303 14.0389 4.6391C13.873 4.5479 13.6867 4.50006 13.4974 4.5H6.74735C6.54564 4.4999 6.34761 4.55404 6.17401 4.65674C6.0004 4.75944 5.8576 4.90693 5.76056 5.08377C5.66351 5.2606 5.6158 5.46027 5.62241 5.66187C5.62902 5.86348 5.68971 6.05959 5.79813 6.22969L14.6013 20.063L5.91485 29.6255C5.81342 29.7344 5.73461 29.8624 5.68302 30.0021C5.63142 30.1417 5.60805 30.2902 5.61426 30.439C5.62048 30.5877 5.65615 30.7337 5.71922 30.8686C5.78229 31.0035 5.87149 31.1245 5.98166 31.2246C6.09184 31.3247 6.22079 31.402 6.36104 31.4519C6.50129 31.5018 6.65006 31.5234 6.79872 31.5154C6.94737 31.5074 7.09297 31.47 7.22705 31.4053C7.36114 31.3406 7.48106 31.25 7.57985 31.1386L15.8542 22.0373L21.5481 30.9853C21.6505 31.1438 21.7911 31.274 21.957 31.364C22.1228 31.4539 22.3087 31.5007 22.4974 31.5H29.2474C29.4488 31.4999 29.6466 31.4458 29.82 31.3431C29.9934 31.2405 30.1361 31.0932 30.2331 30.9166C30.3301 30.74 30.3779 30.5405 30.3714 30.3392C30.365 30.1378 30.3046 29.9418 30.1966 29.7717ZM23.1147 29.25L8.79626 6.75H12.8744L27.1984 29.25H23.1147Z" fill="white"/>
</svg>
