<svg width="36" height="36" viewBox="0 0 36 36" fill="none" xmlns="http://www.w3.org/2000/svg">
<path d="M23.1244 17.0634L16.3744 12.5634C16.2049 12.4504 16.0079 12.3855 15.8044 12.3756C15.601 12.3657 15.3986 12.4113 15.219 12.5075C15.0394 12.6036 14.8893 12.7467 14.7847 12.9215C14.6801 13.0964 14.6249 13.2963 14.625 13.5V22.5C14.6249 22.7037 14.6801 22.9037 14.7847 23.0785C14.8893 23.2533 15.0394 23.3964 15.219 23.4925C15.3986 23.5887 15.601 23.6343 15.8044 23.6244C16.0079 23.6146 16.2049 23.5496 16.3744 23.4366L23.1244 18.9366C23.2787 18.8339 23.4052 18.6946 23.4928 18.5312C23.5803 18.3679 23.6261 18.1854 23.6261 18C23.6261 17.8146 23.5803 17.6322 23.4928 17.4688C23.4052 17.3054 23.2787 17.1661 23.1244 17.0634ZM16.875 20.3977V15.6094L20.4722 18L16.875 20.3977ZM32.9527 9.77626C32.8202 9.25784 32.5663 8.77835 32.212 8.37736C31.8577 7.97637 31.4131 7.66537 30.915 7.47001C26.0944 5.60813 18.4219 5.62501 18 5.62501C17.5781 5.62501 9.90562 5.60813 5.085 7.47001C4.58685 7.66537 4.1423 7.97637 3.78801 8.37736C3.43372 8.77835 3.17985 9.25784 3.04734 9.77626C2.68313 11.1797 2.25 13.7447 2.25 18C2.25 22.2553 2.68313 24.8203 3.04734 26.2238C3.17965 26.7424 3.43343 27.2222 3.78773 27.6234C4.14203 28.0247 4.58669 28.3359 5.085 28.5314C9.70312 30.3131 16.9312 30.375 17.9072 30.375H18.0928C19.0688 30.375 26.3011 30.3131 30.915 28.5314C31.4133 28.3359 31.858 28.0247 32.2123 27.6234C32.5666 27.2222 32.8204 26.7424 32.9527 26.2238C33.3169 24.8175 33.75 22.2553 33.75 18C33.75 13.7447 33.3169 11.1797 32.9527 9.77626ZM30.7744 25.6669C30.7315 25.8394 30.6484 25.9993 30.5318 26.1335C30.4152 26.2677 30.2684 26.3724 30.1036 26.4389C25.6528 28.1574 18.083 28.1264 18.0098 28.1264H18C17.9241 28.1264 10.3598 28.1545 5.90625 26.4389C5.7414 26.3724 5.59466 26.2677 5.47806 26.1335C5.36146 25.9993 5.27833 25.8394 5.23547 25.6669C4.89375 24.383 4.5 22.0177 4.5 18C4.5 13.9824 4.89375 11.617 5.22563 10.3402C5.26769 10.1666 5.35046 10.0056 5.4671 9.87033C5.58374 9.7351 5.7309 9.62958 5.89641 9.56251C10.1883 7.90454 17.3798 7.87501 17.9691 7.87501H18.007C18.083 7.87501 25.6542 7.84969 30.1008 9.56251C30.2656 9.62904 30.4124 9.73369 30.529 9.86789C30.6456 10.0021 30.7287 10.162 30.7716 10.3345C31.1063 11.617 31.5 13.9824 31.5 18C31.5 22.0177 31.1062 24.383 30.7744 25.6599V25.6669Z" fill="white"/>
</svg>
